<svg xmlns="http://www.w3.org/2000/svg" xmlns:xlink="http://www.w3.org/1999/xlink" width="450.347" height="313.187" viewBox="0 0 337.76 234.89">
    <defs>
        <symbol overflow="visible" id="a">
            <path style="stroke:none" d="M.813 0h.75v-2.484h1.062L4.031 0h.86l-1.5-2.563c.796-.203 1.312-.75 1.312-1.656 0-1.234-.86-1.672-2.062-1.672H.812zm.75-3.094V-5.28h.968c.922 0 1.422.281 1.422 1.062 0 .75-.5 1.125-1.422 1.125zm0 0"/>
        </symbol>
        <symbol overflow="visible" id="b">
            <path style="stroke:none" d="M2.5.11c.594 0 1.063-.188 1.438-.454l-.266-.469C3.375-.609 3-.5 2.578-.5c-.812 0-1.375-.578-1.437-1.484h2.937c.031-.141.031-.282.031-.438 0-1.25-.625-2.047-1.734-2.047-1 0-1.969.875-1.969 2.297C.406-.734 1.328.11 2.5.11zM1.14-2.563c.094-.829.641-1.313 1.25-1.313.657 0 1.063.453 1.063 1.313zm0 0"/>
        </symbol>
        <symbol overflow="visible" id="c">
            <path style="stroke:none" d="M2.453.11c.531 0 1.016-.204 1.406-.563l-.312-.469a1.568 1.568 0 0 1-1.031.406c-.797 0-1.329-.656-1.329-1.656 0-1 .579-1.672 1.36-1.672.344 0 .625.125.875.36l.36-.47a1.722 1.722 0 0 0-1.266-.515c-1.125 0-2.11.844-2.11 2.297C.406-.719 1.296.11 2.453.11zm0 0"/>
        </symbol>
        <symbol overflow="visible" id="d">
            <path style="stroke:none" d="M.734 0h.75v-4.36h-.75zm.375-5.25c.297 0 .5-.188.5-.484 0-.297-.203-.485-.5-.485-.28 0-.484.188-.484.485 0 .296.203.484.484.484zm0 0"/>
        </symbol>
        <symbol overflow="visible" id="e">
            <path style="stroke:none" d="M.734 1.844h.75V.375L1.47-.391c.39.313.797.5 1.187.5 1 0 1.906-.875 1.906-2.359 0-1.344-.609-2.219-1.734-2.219-.5 0-1 .282-1.39.61h-.032l-.062-.5h-.61zm1.797-2.36c-.281 0-.656-.125-1.047-.453V-3.25c.422-.39.782-.594 1.157-.594.812 0 1.14.64 1.14 1.594 0 1.078-.531 1.734-1.25 1.734zm0 0"/>
        </symbol>
        <symbol overflow="visible" id="m">
            <path style="stroke:none" d="M2.438.11c1.234 0 2.015-.75 2.015-1.673 0-.875-.531-1.296-1.219-1.578L2.391-3.5c-.454-.188-.97-.406-.97-.969 0-.531.438-.86 1.095-.86.5 0 .968.204 1.328.548l.406-.5a2.45 2.45 0 0 0-1.734-.703c-1.079 0-1.86.656-1.86 1.546 0 .875.64 1.297 1.188 1.516l.86.39c.546.235.968.423.968 1.032 0 .563-.453.938-1.219.938a2.357 2.357 0 0 1-1.656-.704l-.422.5A2.765 2.765 0 0 0 2.438.11zm0 0"/>
        </symbol>
        <symbol overflow="visible" id="n">
            <path style="stroke:none" d="M2.438.11C3.5.11 4.453-.72 4.453-2.173S3.5-4.469 2.437-4.469c-1.078 0-2.03.844-2.03 2.297C.406-.719 1.358.11 2.436.11zm0-.626c-.75 0-1.25-.656-1.25-1.656 0-1 .5-1.672 1.25-1.672s1.25.672 1.25 1.672c0 1-.5 1.656-1.25 1.656zm0 0"/>
        </symbol>
        <symbol overflow="visible" id="o">
            <path style="stroke:none" d="M2.016.11c.593 0 1.03-.313 1.421-.797h.032L3.53 0h.61v-4.36h-.735v3.079c-.406.515-.719.75-1.156.75-.578 0-.828-.36-.828-1.156V-4.36h-.75v2.765C.672-.484 1.078.11 2.016.11zm0 0"/>
        </symbol>
        <symbol overflow="visible" id="p">
            <path style="stroke:none" d="M.734 0h.75v-2.797c.297-.734.735-1 1.094-1 .172 0 .281.016.406.063l.157-.641a1.044 1.044 0 0 0-.47-.094c-.483 0-.937.36-1.233.907h-.032l-.062-.797h-.61zm0 0"/>
        </symbol>
        <symbol overflow="visible" id="q">
            <path style="stroke:none" d="M1.875.11c1.031 0 1.594-.594 1.594-1.298 0-.796-.656-1.093-1.328-1.328-.547-.187-.938-.359-.938-.75 0-.328.25-.625.813-.625.375 0 .687.125 1 .344l.343-.422A2.067 2.067 0 0 0 2-4.469c-.953 0-1.5.547-1.5 1.235 0 .718.625 1.03 1.281 1.265.485.188.969.375.969.828 0 .375-.281.672-.844.672C1.36-.469.97-.64.594-.953L.25-.516c.406.391.984.625 1.625.625zm0 0"/>
        </symbol>
        <symbol overflow="visible" id="r">
            <path style="stroke:none" d="M.813 0h.75v-2.328h.953c1.296 0 2.187-.578 2.187-1.828 0-1.282-.906-1.735-2.219-1.735H.813zm.75-2.938V-5.28h.828c1.03 0 1.562.281 1.562 1.125 0 .843-.5 1.218-1.515 1.218zm0 0"/>
        </symbol>
        <symbol overflow="visible" id="s">
            <path style="stroke:none" d="M1.734.11c.547 0 1.032-.282 1.438-.626h.031L3.281 0h.61v-2.688c0-1.078-.47-1.78-1.516-1.78-.703 0-1.313.296-1.719.562l.281.5c.344-.219.797-.438 1.313-.438.703 0 .875.531.89 1.078C1.282-2.562.47-2.094.47-1.125c0 .781.547 1.234 1.265 1.234zm.22-.61c-.423 0-.766-.188-.766-.672 0-.562.484-.906 1.953-1.078v1.188c-.422.375-.766.562-1.188.562zm0 0"/>
        </symbol>
        <symbol overflow="visible" id="t">
            <path style="stroke:none" d="M.734 0h.735v-1.14l.812-.954L3.547 0h.812L2.72-2.594l1.453-1.765h-.828L1.5-2.08h-.031V-6.39H.734zm0 0"/>
        </symbol>
        <symbol overflow="visible" id="u">
            <path style="stroke:none" d="M2.203 2.016c1.36 0 2.203-.704 2.203-1.516 0-.719-.5-1.047-1.515-1.047h-.844c-.578 0-.766-.203-.766-.469 0-.234.125-.39.282-.515.203.093.421.156.64.156.89 0 1.594-.594 1.594-1.516 0-.375-.14-.703-.344-.89h.89v-.578H2.829a1.792 1.792 0 0 0-.625-.11c-.89 0-1.64.61-1.64 1.547 0 .531.28.953.562 1.188v.03c-.219.157-.469.438-.469.813 0 .329.172.563.39.704v.03C.642.11.407.47.407.829c0 .766.735 1.188 1.797 1.188zm0-3.907c-.5 0-.922-.39-.922-1.03 0-.626.407-1 .922-1 .516 0 .922.374.922 1 0 .64-.422 1.03-.922 1.03zm.11 3.375c-.782 0-1.266-.28-1.266-.75 0-.25.14-.515.453-.734.188.047.39.078.563.078h.75c.562 0 .874.125.874.531 0 .454-.546.875-1.374.875zm0 0"/>
        </symbol>
        <symbol overflow="visible" id="f">
            <path style="stroke:none" d="M2.344.125c.328 0 .656-.094.922-.219l-.172-.578c-.203.078-.375.11-.563.11-.547 0-.75-.329-.75-.922v-2.688h1.313v-.672H1.78v-1.562h-.687L1-4.844l-.766.047v.625h.72V-1.5c0 .969.359 1.625 1.39 1.625zm0 0"/>
        </symbol>
        <symbol overflow="visible" id="g">
            <path style="stroke:none" d="M2.703.125c1.188 0 2.25-.938 2.25-2.531 0-1.625-1.062-2.563-2.25-2.563-1.187 0-2.25.938-2.25 2.563C.453-.812 1.516.125 2.703.125zm0-.688c-.828 0-1.39-.75-1.39-1.843 0-1.125.562-1.875 1.39-1.875.828 0 1.39.75 1.39 1.875 0 1.094-.562 1.844-1.39 1.844zm0 0"/>
        </symbol>
        <symbol overflow="visible" id="h">
            <path style="stroke:none" d="M1.688.125c.203 0 .359-.031.468-.094l-.11-.625c-.077.031-.108.031-.155.031-.141 0-.25-.093-.25-.359v-6.172H.812v6.11c0 .703.25 1.109.875 1.109zm0 0"/>
        </symbol>
        <symbol overflow="visible" id="i">
            <path style="stroke:none" d="M2.766.125c.671 0 1.187-.203 1.609-.5l-.281-.531c-.344.234-.75.36-1.219.36-.922 0-1.531-.657-1.594-1.657h3.25c.032-.156.047-.313.047-.485 0-1.406-.703-2.28-1.953-2.28C1.531-4.969.453-4 .453-2.423.453-.812 1.47.125 2.766.125zM1.28-2.844c.094-.922.688-1.469 1.375-1.469.735 0 1.188.516 1.188 1.47zm0 0"/>
        </symbol>
        <symbol overflow="visible" id="j">
            <path style="stroke:none" d="M2.734.125c.579 0 1.125-.219 1.563-.625l-.36-.531a1.686 1.686 0 0 1-1.14.468c-.89 0-1.485-.75-1.485-1.843 0-1.125.641-1.875 1.516-1.875.39 0 .703.156.969.406l.406-.516a1.92 1.92 0 0 0-1.406-.578c-1.25 0-2.344.938-2.344 2.563 0 1.594 1 2.531 2.281 2.531zm0 0"/>
        </symbol>
        <symbol overflow="visible" id="k">
            <path style="stroke:none" d="M.813 0h.828v-3.516C2.094-4 2.5-4.25 2.844-4.25c.625 0 .906.375.906 1.297V0h.828v-3.516c.453-.484.828-.734 1.219-.734.61 0 .89.375.89 1.297V0h.829v-3.078c0-1.235-.485-1.89-1.47-1.89-.593 0-1.109.39-1.593.921-.203-.562-.61-.922-1.36-.922-.577 0-1.062.36-1.5.828h-.03L1.5-4.844H.812zm0 0"/>
        </symbol>
        <symbol overflow="visible" id="l">
            <path style="stroke:none" d="M.813 0h.828v-1.281l.89-1.047L3.953 0h.89L3.017-2.89 4.64-4.845h-.938L1.672-2.312H1.64v-4.782H.812zm0 0"/>
        </symbol>
    </defs>
    <path style="stroke:none;fill-rule:nonzero;fill:#fff;fill-opacity:1" d="M337.758 0v234.89H0V0zm0 0"/>
    <path style="fill:none;stroke-width:1.19553;stroke-linecap:butt;stroke-linejoin:miter;stroke:#000;stroke-opacity:1;stroke-miterlimit:10" d="M-133.433 0v28.348a4.253 4.253 0 0 1-8.504 0 2.552 2.552 0 0 1 5.105 0c0 .445-.12.887-.343 1.273m3.742-3.824h-5.949m1.7 6.801h40.085a4.25 4.25 0 0 0 4.254-4.25v-54.145M-133.433 0v-28.347a4.253 4.253 0 0 1 8.504 0c0 1.41-1.14 2.55-2.55 2.55a2.549 2.549 0 0 1-2.208-3.824m.508-2.976h40.086A3.402 3.402 0 0 1-85.69-29.2a3.403 3.403 0 0 1-3.403 3.402h-38.812M-125.413 5.668h24.05M-125.412 0h24.05m-24.05-5.672h16.035" transform="matrix(1 0 0 -1 170.878 170.68)"/>
    <use xlink:href="#a" x="44.893" y="155.864" style="fill:#000;fill-opacity:1"/>
    <g style="fill:#000;fill-opacity:1">
        <use xlink:href="#b" x="49.914" y="155.864"/>
        <use xlink:href="#c" x="54.362" y="155.864"/>
        <use xlink:href="#d" x="58.45" y="155.864"/>
        <use xlink:href="#e" x="60.665" y="155.864"/>
        <use xlink:href="#b" x="65.641" y="155.864"/>
    </g>
    <path style="fill:none;stroke-width:1.19553;stroke-linecap:butt;stroke-linejoin:miter;stroke:#000;stroke-opacity:1;stroke-miterlimit:10" d="M24.36 28.348h-48.722a3.986 3.986 0 0 1-3.985-3.984v-48.727c0-2.2 1.785-3.984 3.985-3.984H24.36a3.987 3.987 0 0 1 3.989 3.984v48.727c0 2.199-1.786 3.984-3.989 3.984zm0 0" transform="matrix(1 0 0 -1 170.878 170.68)"/>
    <use xlink:href="#f" x="152.332" y="174.167" style="fill:#000;fill-opacity:1"/>
    <g style="fill:#000;fill-opacity:1">
        <use xlink:href="#g" x="155.57" y="174.167"/>
        <use xlink:href="#h" x="160.97" y="174.167"/>
        <use xlink:href="#f" x="163.51" y="174.167"/>
    </g>
    <g style="fill:#000;fill-opacity:1">
        <use xlink:href="#i" x="166.748" y="174.167"/>
        <use xlink:href="#j" x="171.689" y="174.167"/>
        <use xlink:href="#k" x="176.232" y="174.167"/>
        <use xlink:href="#l" x="184.491" y="174.167"/>
    </g>
    <path style="fill:none;stroke-width:1.19553;stroke-linecap:butt;stroke-linejoin:miter;stroke:#000;stroke-opacity:1;stroke-miterlimit:10" d="M11.54 141.735h-29.59a1.996 1.996 0 0 1-1.996-1.993v-52.71c0-1.098.895-1.993 1.996-1.993h36.102c1.101 0 1.992.895 1.992 1.993v46.199" transform="matrix(1 0 0 -1 170.878 170.68)"/>
    <path style="fill:none;stroke-width:1.19553;stroke-linecap:butt;stroke-linejoin:round;stroke:#000;stroke-opacity:1;stroke-miterlimit:10" d="M11.54 141.735v-8.504h8.504zm0 0" transform="matrix(1 0 0 -1 170.878 170.68)"/>
    <g style="fill:#000;fill-opacity:1">
        <use xlink:href="#m" x="156.047" y="60.234"/>
        <use xlink:href="#n" x="160.835" y="60.234"/>
        <use xlink:href="#o" x="165.695" y="60.234"/>
        <use xlink:href="#p" x="170.573" y="60.234"/>
    </g>
    <use xlink:href="#c" x="173.603" y="60.234" style="fill:#000;fill-opacity:1"/>
    <g style="fill:#000;fill-opacity:1">
        <use xlink:href="#b" x="177.504" y="60.234"/>
        <use xlink:href="#q" x="181.951" y="60.234"/>
    </g>
    <path style="fill:none;stroke-width:1.19553;stroke-linecap:butt;stroke-linejoin:miter;stroke:#000;stroke-opacity:1;stroke-miterlimit:10" d="M-20.046 137.48h-2.258a1.99 1.99 0 0 1-1.992-1.991V82.782a1.99 1.99 0 0 1 1.992-1.993h36.106c1.097 0 1.992.891 1.992 1.993v2.257" transform="matrix(1 0 0 -1 170.878 170.68)"/>
    <path style="fill:none;stroke-width:1.19553;stroke-linecap:butt;stroke-linejoin:miter;stroke:#000;stroke-opacity:1;stroke-miterlimit:10" d="M-24.296 133.23h-2.258a1.994 1.994 0 0 1-1.996-1.991V78.528c0-1.098.895-1.993 1.996-1.993H9.548c1.101 0 1.992.895 1.992 1.993v2.261M112.524-16.652 89.7-3.476c-.476.277-.86.945-.86 1.496v18.133c0 .55.384 1.218.86 1.496l22.824 13.176c.477.277 1.25.277 1.727 0l22.82-13.176c.477-.278.864-.946.864-1.496V-1.98c0-.55-.387-1.219-.864-1.496l-22.82-13.176c-.477-.273-1.25-.273-1.727 0zM113.388 2.977 88.84 17.149m24.547-14.172v-20.129m0 20.129 9.207 5.312m6.136 3.547 9.204 5.313" transform="matrix(1 0 0 -1 170.878 170.68)"/>
    <path style="fill:none;stroke-width:1.19553;stroke-linecap:butt;stroke-linejoin:miter;stroke:#000;stroke-opacity:1;stroke-miterlimit:10" d="m104.18 26.008 23.688-13.676c.477-.273.863-.945.863-1.492V2.77c0-.55-.386-1.223-.863-1.496l-4.414-2.547c-.477-.277-.86-.05-.86.496v8.07c0 .551-.386 1.223-.863 1.496L98.044 22.465" transform="matrix(1 0 0 -1 170.878 170.68)"/>
    <use xlink:href="#r" x="266.875" y="201.215" style="fill:#000;fill-opacity:1"/>
    <g style="fill:#000;fill-opacity:1">
        <use xlink:href="#s" x="271.573" y="201.215"/>
        <use xlink:href="#c" x="276.092" y="201.215"/>
        <use xlink:href="#t" x="280.181" y="201.215"/>
    </g>
    <g style="fill:#000;fill-opacity:1">
        <use xlink:href="#s" x="284.53" y="201.215"/>
        <use xlink:href="#u" x="289.049" y="201.215"/>
    </g>
    <g style="fill:#000;fill-opacity:1">
        <use xlink:href="#b" x="293.451" y="201.215"/>
        <use xlink:href="#q" x="297.899" y="201.215"/>
    </g>
    <path style="fill:none;stroke-width:1.19553;stroke-linecap:butt;stroke-linejoin:miter;stroke:#000;stroke-opacity:1;stroke-miterlimit:10" d="M-77.952 0h32.242" transform="matrix(1 0 0 -1 170.878 170.68)"/>
    <path style="stroke:none;fill-rule:nonzero;fill:#000;fill-opacity:1" d="m128.36 170.68-5.102-2.551 1.91 2.55-1.91 2.551"/>
    <path style="fill:none;stroke-width:1.19553;stroke-linecap:butt;stroke-linejoin:miter;stroke:#000;stroke-opacity:1;stroke-miterlimit:10" d="M0 63.782V45.707" transform="matrix(1 0 0 -1 170.878 170.68)"/>
    <path style="stroke:none;fill-rule:nonzero;fill:#000;fill-opacity:1" d="m170.879 128.16 2.55-5.101-2.55 1.914-2.55-1.914"/>
    <path style="fill:none;stroke-width:1.19553;stroke-linecap:butt;stroke-linejoin:miter;stroke:#000;stroke-opacity:1;stroke-miterlimit:10" d="M42.52 0h25.16" transform="matrix(1 0 0 -1 170.878 170.68)"/>
    <path style="stroke:none;fill-rule:nonzero;fill:#000;fill-opacity:1" d="m241.746 170.68-5.101-2.551 1.914 2.55-1.914 2.551"/>
</svg>
