<svg xmlns="http://www.w3.org/2000/svg" xmlns:xlink="http://www.w3.org/1999/xlink" width="644.12" height="974.08" viewBox="0 0 483.09 730.56">
    <defs>
        <symbol overflow="visible" id="b">
            <path style="stroke:none" d="M.813 0h.75v-2.484h1.062L4.031 0h.86l-1.5-2.563c.796-.203 1.312-.75 1.312-1.656 0-1.234-.86-1.672-2.062-1.672H.812zm.75-3.094V-5.28h.968c.922 0 1.422.281 1.422 1.062 0 .75-.5 1.125-1.422 1.125zm0 0"/>
        </symbol>
        <symbol overflow="visible" id="c">
            <path style="stroke:none" d="M2.5.11c.594 0 1.063-.188 1.438-.454l-.266-.469C3.375-.609 3-.5 2.578-.5c-.812 0-1.375-.578-1.437-1.484h2.937c.031-.141.031-.282.031-.438 0-1.25-.625-2.047-1.734-2.047-1 0-1.969.875-1.969 2.297C.406-.734 1.328.11 2.5.11zM1.14-2.563c.094-.829.641-1.313 1.25-1.313.657 0 1.063.453 1.063 1.313zm0 0"/>
        </symbol>
        <symbol overflow="visible" id="d">
            <path style="stroke:none" d="M2.453.11c.531 0 1.016-.204 1.406-.563l-.312-.469a1.568 1.568 0 0 1-1.031.406c-.797 0-1.329-.656-1.329-1.656 0-1 .579-1.672 1.36-1.672.344 0 .625.125.875.36l.36-.47a1.722 1.722 0 0 0-1.266-.515c-1.125 0-2.11.844-2.11 2.297C.406-.719 1.296.11 2.453.11zm0 0"/>
        </symbol>
        <symbol overflow="visible" id="e">
            <path style="stroke:none" d="M.734 0h.75v-4.36h-.75zm.375-5.25c.297 0 .5-.188.5-.484 0-.297-.203-.485-.5-.485-.28 0-.484.188-.484.485 0 .296.203.484.484.484zm0 0"/>
        </symbol>
        <symbol overflow="visible" id="f">
            <path style="stroke:none" d="M.734 1.844h.75V.375L1.47-.391c.39.313.797.5 1.187.5 1 0 1.906-.875 1.906-2.359 0-1.344-.609-2.219-1.734-2.219-.5 0-1 .282-1.39.61h-.032l-.062-.5h-.61zm1.797-2.36c-.281 0-.656-.125-1.047-.453V-3.25c.422-.39.782-.594 1.157-.594.812 0 1.14.64 1.14 1.594 0 1.078-.531 1.734-1.25 1.734zm0 0"/>
        </symbol>
        <symbol overflow="visible" id="F">
            <path style="stroke:none" d="M.734 0h.75v-2.797c.297-.734.735-1 1.094-1 .172 0 .281.016.406.063l.157-.641a1.044 1.044 0 0 0-.47-.094c-.483 0-.937.36-1.233.907h-.032l-.062-.797h-.61zm0 0"/>
        </symbol>
        <symbol overflow="visible" id="G">
            <path style="stroke:none" d="M1.734.11c.547 0 1.032-.282 1.438-.626h.031L3.281 0h.61v-2.688c0-1.078-.47-1.78-1.516-1.78-.703 0-1.313.296-1.719.562l.281.5c.344-.219.797-.438 1.313-.438.703 0 .875.531.89 1.078C1.282-2.562.47-2.094.47-1.125c0 .781.547 1.234 1.265 1.234zm.22-.61c-.423 0-.766-.188-.766-.672 0-.562.484-.906 1.953-1.078v1.188c-.422.375-.766.562-1.188.562zm0 0"/>
        </symbol>
        <symbol overflow="visible" id="H">
            <path style="stroke:none" d="m1.922 1.578.453-.219C1.687.22 1.359-1.125 1.359-2.5c0-1.36.329-2.703 1.016-3.844l-.453-.218C1.172-5.36.734-4.079.734-2.5c0 1.578.438 2.875 1.188 4.078zm0 0"/>
        </symbol>
        <symbol overflow="visible" id="I">
            <path style="stroke:none" d="M.813 1.578C1.546.375 1.984-.922 1.984-2.5c0-1.578-.437-2.86-1.171-4.063l-.47.22C1.032-5.204 1.376-3.86 1.376-2.5c0 1.375-.344 2.719-1.031 3.86zm0 0"/>
        </symbol>
        <symbol overflow="visible" id="R">
            <path style="stroke:none" d="M2.656.11c1 0 1.906-.876 1.906-2.36 0-1.344-.609-2.219-1.734-2.219-.484 0-.969.266-1.375.61l.031-.782v-1.75h-.75V0h.594l.078-.453h.016c.39.36.844.562 1.234.562zm-.125-.626c-.281 0-.672-.125-1.047-.453V-3.25c.407-.39.782-.594 1.157-.594.812 0 1.14.64 1.14 1.594 0 1.078-.531 1.734-1.25 1.734zm0 0"/>
        </symbol>
        <symbol overflow="visible" id="S">
            <path style="stroke:none" d="M2.016.11c.593 0 1.03-.313 1.421-.797h.032L3.53 0h.61v-4.36h-.735v3.079c-.406.515-.719.75-1.156.75-.578 0-.828-.36-.828-1.156V-4.36h-.75v2.765C.672-.484 1.078.11 2.016.11zm0 0"/>
        </symbol>
        <symbol overflow="visible" id="T">
            <path style="stroke:none" d="M1.516.11c.187 0 .328-.032.437-.079l-.11-.562c-.062.015-.109.015-.155.015-.11 0-.204-.078-.204-.312v-5.563h-.75v5.516c0 .625.22.984.782.984zm0 0"/>
        </symbol>
        <symbol overflow="visible" id="U">
            <path style="stroke:none" d="M2.219.11c.515 0 .984-.282 1.328-.626h.015L3.626 0h.625v-6.39H3.5v1.687l.031.734c-.39-.312-.719-.5-1.219-.5-1 0-1.89.875-1.89 2.297C.422-.719 1.125.11 2.219.11zm.172-.626c-.766 0-1.204-.625-1.204-1.656 0-1 .563-1.672 1.25-1.672.36 0 .688.125 1.063.453v2.282c-.36.39-.703.593-1.11.593zm0 0"/>
        </symbol>
        <symbol overflow="visible" id="X">
            <path style="stroke:none" d="M.734 0h.735v-1.14l.812-.954L3.547 0h.812L2.72-2.594l1.453-1.765h-.828L1.5-2.08h-.031V-6.39H.734zm0 0"/>
        </symbol>
        <symbol overflow="visible" id="Y">
            <path style="stroke:none" d="M2.203 2.016c1.36 0 2.203-.704 2.203-1.516 0-.719-.5-1.047-1.515-1.047h-.844c-.578 0-.766-.203-.766-.469 0-.234.125-.39.282-.515.203.093.421.156.64.156.89 0 1.594-.594 1.594-1.516 0-.375-.14-.703-.344-.89h.89v-.578H2.829a1.792 1.792 0 0 0-.625-.11c-.89 0-1.64.61-1.64 1.547 0 .531.28.953.562 1.188v.03c-.219.157-.469.438-.469.813 0 .329.172.563.39.704v.03C.642.11.407.47.407.829c0 .766.735 1.188 1.797 1.188zm0-3.907c-.5 0-.922-.39-.922-1.03 0-.626.407-1 .922-1 .516 0 .922.374.922 1 0 .64-.422 1.03-.922 1.03zm.11 3.375c-.782 0-1.266-.28-1.266-.75 0-.25.14-.515.453-.734.188.047.39.078.563.078h.75c.562 0 .874.125.874.531 0 .454-.546.875-1.374.875zm0 0"/>
        </symbol>
        <symbol overflow="visible" id="g">
            <path style="stroke:none" d="M.89 0h.844v-2.594h1.063c1.437 0 2.422-.64 2.422-2.015 0-1.438-.985-1.938-2.453-1.938H.89zm.844-3.266v-2.593h.922c1.156 0 1.735.312 1.735 1.25 0 .921-.547 1.343-1.688 1.343zm0 0"/>
        </symbol>
        <symbol overflow="visible" id="h">
            <path style="stroke:none" d="M1.938.125c.609 0 1.14-.313 1.593-.703h.031L3.642 0h.671v-2.984c0-1.188-.5-1.985-1.687-1.985-.766 0-1.453.328-1.89.625l.312.563c.375-.25.89-.5 1.453-.5.781 0 .984.593.984 1.203-2.062.234-2.968.75-2.968 1.828 0 .875.609 1.375 1.421 1.375zm.218-.688c-.469 0-.828-.203-.828-.75 0-.625.531-.984 2.156-1.187v1.328c-.468.406-.859.61-1.328.61zm0 0"/>
        </symbol>
        <symbol overflow="visible" id="i">
            <path style="stroke:none" d="M.813 0h.828v-3.11c.328-.812.828-1.109 1.234-1.109.188 0 .297.016.438.063l.171-.703c-.14-.079-.296-.11-.515-.11-.531 0-1.031.39-1.375 1h-.032L1.5-4.844H.812zm0 0"/>
        </symbol>
        <symbol overflow="visible" id="j">
            <path style="stroke:none" d="M2.078.125c1.156 0 1.781-.656 1.781-1.453 0-.875-.734-1.203-1.484-1.469-.61-.219-1.031-.39-1.031-.828 0-.36.265-.703.89-.703.422 0 .782.14 1.11.39l.39-.484a2.415 2.415 0 0 0-1.515-.547c-1.047 0-1.672.61-1.672 1.375 0 .797.703 1.156 1.422 1.406.547.204 1.093.407 1.093.907 0 .422-.312.75-.953.75-.593 0-1.03-.172-1.453-.531l-.375.484a2.581 2.581 0 0 0 1.797.703zm0 0"/>
        </symbol>
        <symbol overflow="visible" id="k">
            <path style="stroke:none" d="M2.766.125c.671 0 1.187-.203 1.609-.5l-.281-.531c-.344.234-.75.36-1.219.36-.922 0-1.531-.657-1.594-1.657h3.25c.032-.156.047-.313.047-.485 0-1.406-.703-2.28-1.953-2.28C1.531-4.969.453-4 .453-2.423.453-.812 1.47.125 2.766.125zM1.28-2.844c.094-.922.688-1.469 1.375-1.469.735 0 1.188.516 1.188 1.47zm0 0"/>
        </symbol>
        <symbol overflow="visible" id="l">
            <path style="stroke:none" d="M2.734.125c.579 0 1.125-.219 1.563-.625l-.36-.531a1.686 1.686 0 0 1-1.14.468c-.89 0-1.485-.75-1.485-1.843 0-1.125.641-1.875 1.516-1.875.39 0 .703.156.969.406l.406-.516a1.92 1.92 0 0 0-1.406-.578c-1.25 0-2.344.938-2.344 2.563 0 1.594 1 2.531 2.281 2.531zm0 0"/>
        </symbol>
        <symbol overflow="visible" id="m">
            <path style="stroke:none" d="M.813 0h.828v-4.844H.812zm.421-5.844c.329 0 .547-.203.547-.531s-.218-.547-.547-.547a.525.525 0 0 0-.546.547c0 .328.234.531.546.531zm0 0"/>
        </symbol>
        <symbol overflow="visible" id="n">
            <path style="stroke:none" d="M.813 2.047h.828V.407l-.016-.845c.438.344.89.563 1.328.563 1.11 0 2.11-.969 2.11-2.625 0-1.5-.672-2.469-1.922-2.469-.563 0-1.11.313-1.547.688h-.032L1.5-4.844H.812zM2.828-.578c-.328 0-.75-.125-1.187-.5V-3.61c.468-.438.875-.657 1.296-.657.907 0 1.266.704 1.266 1.766 0 1.203-.578 1.922-1.375 1.922zm0 0"/>
        </symbol>
        <symbol overflow="visible" id="o">
            <path style="stroke:none" d="M.89 0h.844v-2.922h2.5v-.703h-2.5v-2.203h2.938v-.719H.89zm0 0"/>
        </symbol>
        <symbol overflow="visible" id="p">
            <path style="stroke:none" d="M2.344.125c.328 0 .656-.094.922-.219l-.172-.578c-.203.078-.375.11-.563.11-.547 0-.75-.329-.75-.922v-2.688h1.313v-.672H1.78v-1.562h-.687L1-4.844l-.766.047v.625h.72V-1.5c0 .969.359 1.625 1.39 1.625zm0 0"/>
        </symbol>
        <symbol overflow="visible" id="q">
            <path style="stroke:none" d="M.813 0h.828v-3.516c.484-.484.828-.734 1.312-.734.64 0 .922.375.922 1.297V0h.828v-3.078c0-1.235-.453-1.89-1.484-1.89-.672 0-1.156.359-1.61.796l.032-.984v-1.938H.812zm0 0"/>
        </symbol>
        <symbol overflow="visible" id="r">
            <path style="stroke:none" d="M2.703.125c1.188 0 2.25-.938 2.25-2.531 0-1.625-1.062-2.563-2.25-2.563-1.187 0-2.25.938-2.25 2.563C.453-.812 1.516.125 2.703.125zm0-.688c-.828 0-1.39-.75-1.39-1.843 0-1.125.562-1.875 1.39-1.875.828 0 1.39.75 1.39 1.875 0 1.094-.562 1.844-1.39 1.844zm0 0"/>
        </symbol>
        <symbol overflow="visible" id="s">
            <path style="stroke:none" d="M2.234.125c.672 0 1.141-.36 1.594-.875h.031l.063.75h.687v-4.844h-.828v3.422c-.453.578-.797.828-1.281.828-.64 0-.922-.39-.922-1.297v-2.953H.75v3.063c0 1.25.453 1.906 1.484 1.906zm0 0"/>
        </symbol>
        <symbol overflow="visible" id="N">
            <path style="stroke:none" d="M.89 0h2.094C4.454 0 5.47-.625 5.47-1.906c0-.907-.547-1.422-1.328-1.578v-.032c.609-.203.953-.78.953-1.421 0-1.157-.922-1.61-2.25-1.61H.89zm.844-3.766v-2.109h1c1.016 0 1.532.281 1.532 1.047 0 .656-.454 1.062-1.563 1.062zm0 3.094v-2.453h1.141c1.125 0 1.766.375 1.766 1.188 0 .875-.657 1.265-1.766 1.265zm0 0"/>
        </symbol>
        <symbol overflow="visible" id="O">
            <path style="stroke:none" d="M1.688.125c.203 0 .359-.031.468-.094l-.11-.625c-.077.031-.108.031-.155.031-.141 0-.25-.093-.25-.359v-6.172H.812v6.11c0 .703.25 1.109.875 1.109zm0 0"/>
        </symbol>
        <symbol overflow="visible" id="P">
            <path style="stroke:none" d="M2.469.125c.578 0 1.094-.328 1.469-.688h.03L4.032 0h.688v-7.094H3.89v1.86l.03.828C3.5-4.75 3.126-4.97 2.579-4.97c-1.11 0-2.11.985-2.11 2.563 0 1.61.782 2.531 2 2.531zm.187-.703c-.86 0-1.328-.688-1.328-1.844 0-1.11.61-1.844 1.39-1.844.391 0 .766.125 1.173.5v2.532c-.407.437-.797.656-1.235.656zm0 0"/>
        </symbol>
        <symbol overflow="visible" id="Q">
            <path style="stroke:none" d="M.953 0h.828v-4.172h1.016v-.672H1.78v-.765c0-.61.219-.938.688-.938.156 0 .344.031.531.094l.188-.61a2.423 2.423 0 0 0-.813-.156c-.969 0-1.422.625-1.422 1.61v.765l-.656.047v.625h.656zm0 0"/>
        </symbol>
        <symbol overflow="visible" id="V">
            <path style="stroke:none" d="M3.375.125c.828 0 1.469-.344 2-.953l-.453-.5c-.422.453-.89.703-1.516.703-1.25 0-2.015-1.016-2.015-2.672 0-1.625.812-2.625 2.03-2.625.563 0 1 .234 1.345.594l.453-.531a2.43 2.43 0 0 0-1.797-.797C1.75-6.656.516-5.375.516-3.266.516-1.14 1.734.125 3.375.125zm0 0"/>
        </symbol>
        <symbol overflow="visible" id="W">
            <path style="stroke:none" d="M.906 2.078c.969 0 1.469-.719 1.813-1.672l1.828-5.25h-.813l-.859 2.672c-.14.422-.266.922-.406 1.36h-.031c-.172-.438-.329-.938-.485-1.36L.984-4.844H.125L2.063.016l-.11.359C1.75.969 1.406 1.391.875 1.391a.917.917 0 0 1-.36-.063l-.187.656c.156.063.344.094.578.094zm0 0"/>
        </symbol>
        <symbol overflow="visible" id="Z">
            <path style="stroke:none" d="M1.86 0h.968l1.719-4.844h-.813l-.906 2.735c-.156.484-.312.968-.453 1.437h-.047c-.14-.469-.297-.953-.437-1.437L.984-4.844H.125zm0 0"/>
        </symbol>
        <symbol overflow="visible" id="t">
            <path style="stroke:none" d="M.344 0h.781l.625-3.094h2.938L4.063 0h.796l1.297-6.547h-.781L4.828-3.78H1.875l.563-2.766h-.782zm0 0"/>
        </symbol>
        <symbol overflow="visible" id="u">
            <path style="stroke:none" d="M2.11.125c1.328 0 2.624-1.313 2.624-3.14 0-1.22-.687-1.954-1.734-1.954-1.328 0-2.61 1.313-2.61 3.14C.39-.624 1.063.126 2.11.126zm.078-.64c-.657 0-1.016-.485-1.016-1.36 0-1.36.86-2.453 1.75-2.453.672 0 1.031.484 1.031 1.36 0 1.343-.86 2.452-1.765 2.452zm0 0"/>
        </symbol>
        <symbol overflow="visible" id="v">
            <path style="stroke:none" d="M.313 0h.765l.25-1.219 1.11-1.14L3.375 0h.781L2.984-2.828l1.938-2.016h-.89l-2.47 2.547h-.03L2.5-7.094h-.781zm0 0"/>
        </symbol>
        <symbol overflow="visible" id="w">
            <path style="stroke:none" d="M1.328-3.563c.39 0 .672-.343.672-.687 0-.297-.172-.516-.469-.516-.375 0-.656.375-.656.704 0 .296.172.5.453.5zM.703.126c.39 0 .656-.36.656-.688 0-.312-.171-.53-.468-.53-.375 0-.657.374-.657.718 0 .281.172.5.47.5zm0 0"/>
        </symbol>
        <symbol overflow="visible" id="x">
            <path style="stroke:none" d="M-.094 2.047h.766L.969.453 1.14-.578h.03c.25.406.657.703 1.157.703 1.344 0 2.61-1.469 2.61-3.328 0-1.14-.532-1.766-1.391-1.766-.594 0-1.172.36-1.656.766h-.032l.047-.64h-.625zm2.39-2.578c-.374 0-.702-.188-.983-.688L1.78-3.53c.453-.5 1.047-.781 1.485-.781.546 0 .89.39.89 1.218 0 1.344-.89 2.563-1.86 2.563zm0 0"/>
        </symbol>
        <symbol overflow="visible" id="y">
            <path style="stroke:none" d="M1.625.125c1.031 0 1.813-.594 1.813-1.5 0-.578-.313-.938-1.126-1.375-.5-.266-.859-.5-.859-.875 0-.39.36-.734.86-.734.421 0 .796.187 1.062.468l.406-.406a1.842 1.842 0 0 0-1.453-.672c-.875 0-1.61.594-1.61 1.438 0 .562.423.953 1.032 1.297.75.421.969.593.969.953 0 .468-.469.797-1.031.797-.516 0-.985-.25-1.282-.657l-.422.36c.313.547 1 .906 1.641.906zm0 0"/>
        </symbol>
        <symbol overflow="visible" id="z">
            <path style="stroke:none" d="M1.828.125c.39 0 .719-.125.938-.25l-.188-.516c-.14.079-.328.125-.515.125-.422 0-.594-.187-.594-.593 0-.11.015-.235.031-.36l.578-2.765h1.235l.124-.61H2.22l.297-1.547h-.657l-.39 1.547-.766.047-.11.563h.72L.734-1.5a3.011 3.011 0 0 0-.046.516C.688-.36 1 .125 1.827.125zm0 0"/>
        </symbol>
        <symbol overflow="visible" id="A">
            <path style="stroke:none" d="M-.36 1.234h4.563l.11-.5H-.25zm0 0"/>
        </symbol>
        <symbol overflow="visible" id="B">
            <path style="stroke:none" d="M1.781.125c.61 0 1.203-.344 1.688-.844H3.5L3.422 0h.64l.97-4.844h-.626l-.187.61h-.047c-.219-.438-.64-.735-1.156-.735C1.672-4.969.39-3.5.39-1.64.39-.5.937.125 1.78.125zm.282-.656c-.532 0-.876-.39-.876-1.219 0-1.344.891-2.563 1.86-2.563.36 0 .703.204.984.704l-.453 2.156c-.469.64-1 .922-1.515.922zm0 0"/>
        </symbol>
        <symbol overflow="visible" id="C">
            <path style="stroke:none" d="M.313 0h.765l.594-3.047c.422-.797.953-1.219 1.437-1.219.172 0 .313.016.422.063l.266-.672a1.044 1.044 0 0 0-.469-.094c-.594 0-1.11.469-1.5 1.047h-.031l.11-.922H1.28zm0 0"/>
        </symbol>
        <symbol overflow="visible" id="D">
            <path style="stroke:none" d="M2.313.125c.624 0 1.14-.234 1.515-.531l-.281-.469A1.846 1.846 0 0 1 2.453-.5c-.828 0-1.469-.516-1.312-1.75h3.14c.078-.172.188-.578.188-.953 0-1-.422-1.766-1.516-1.766-1.265 0-2.578 1.235-2.578 3.063C.375-.61 1.141.125 2.313.125zM1.234-2.828c.235-.922.922-1.516 1.641-1.516.688 0 .938.516.938 1.063 0 .172-.032.312-.063.453zm0 0"/>
        </symbol>
        <symbol overflow="visible" id="J">
            <path style="stroke:none" d="M.422 0h.781l.828-4.234h.985l.14-.61h-.984l.156-.828c.11-.562.39-.922.828-.922.235 0 .406.063.547.157l.266-.547a1.65 1.65 0 0 0-.875-.235c-.813 0-1.328.594-1.531 1.563l-.157.812-.656.047-.11.563h.641zm0 0"/>
        </symbol>
        <symbol overflow="visible" id="K">
            <path style="stroke:none" d="M2.156.125c.688 0 1.219-.297 1.547-.578l-.328-.484c-.266.218-.672.421-1.078.421-.766 0-1.14-.484-1.14-1.359 0-1.328.89-2.453 1.859-2.453.406 0 .64.125.875.39l.437-.437c-.25-.328-.672-.594-1.25-.594-1.406 0-2.703 1.344-2.703 3.14 0 1.235.719 1.954 1.781 1.954zm0 0"/>
        </symbol>
        <symbol overflow="visible" id="L">
            <path style="stroke:none" d="M.313 0h.765l.672-3.422c.61-.61 1.078-.875 1.453-.875.5 0 .719.25.719.734 0 .172-.031.313-.078.579L3.234 0h.782l.625-3.094c.046-.265.078-.437.078-.672 0-.734-.344-1.203-1.157-1.203-.593 0-1.124.36-1.671.828h-.032l.172-.625.469-2.328h-.781zm0 0"/>
        </symbol>
        <symbol overflow="visible" id="M">
            <path style="stroke:none" d="M1.672.125c.578 0 1.156-.39 1.672-.86h.031L3.312 0h.626l.968-4.844h-.765l-.688 3.422c-.594.61-1.062.875-1.422.875-.5 0-.719-.25-.719-.75 0-.172.016-.312.079-.562l.593-2.985H1.22L.594-1.75a2.5 2.5 0 0 0-.078.656c0 .75.343 1.219 1.156 1.219zm0 0"/>
        </symbol>
        <symbol overflow="visible" id="aa">
            <path style="stroke:none" d="M2.328.125c1.344 0 2.61-1.469 2.61-3.328 0-1.14-.532-1.766-1.391-1.766-.594 0-1.156.328-1.64.719H1.89l.218-.953.391-1.89h-.781L.312 0h.641l.188-.61h.03c.235.438.641.735 1.157.735zm-.031-.656c-.375 0-.703-.203-.985-.719l.47-2.281c.452-.5 1.046-.781 1.484-.781.546 0 .89.39.89 1.218 0 1.344-.89 2.563-1.86 2.563zm0 0"/>
        </symbol>
        <symbol overflow="visible" id="ab">
            <path style="stroke:none" d="M.313 0h.765l.969-4.844H1.28zm1.593-5.86a.564.564 0 0 0 .578-.562c0-.281-.234-.453-.484-.453a.577.577 0 0 0-.578.578c0 .281.219.438.484.438zm0 0"/>
        </symbol>
        <symbol overflow="visible" id="ac">
            <path style="stroke:none" d="M1.125.125c.188 0 .328-.047.469-.11L1.53-.53c-.078.015-.093.015-.14.015-.094 0-.157-.062-.157-.156 0-.062 0-.11.016-.219L2.5-7.094h-.781L.5-.922a1.43 1.43 0 0 0-.063.406c0 .407.22.641.688.641zm0 0"/>
        </symbol>
        <symbol overflow="visible" id="ad">
            <path style="stroke:none" d="M1.781.125c.61 0 1.203-.344 1.688-.844H3.5L3.422 0h.64L5.5-7.094h-.781l-.375 1.89-.157.954h-.046c-.22-.438-.61-.719-1.125-.719C1.672-4.969.39-3.5.39-1.64.39-.5.937.125 1.78.125zm.282-.656c-.532 0-.876-.39-.876-1.219 0-1.344.891-2.563 1.86-2.563.36 0 .703.204.984.704l-.453 2.156c-.484.64-1 .922-1.515.922zm0 0"/>
        </symbol>
        <symbol overflow="visible" id="ae">
            <path style="stroke:none" d="M1.703 2.188c1.203 0 1.984-.688 2.25-1.954L4.97-4.844h-.625l-.203.61h-.032a1.3 1.3 0 0 0-1.156-.735C1.641-4.969.391-3.53.391-1.75.39-.625.984-.047 1.797-.047c.61 0 1.172-.312 1.687-.828L3.234.172c-.203.844-.687 1.39-1.5 1.39-.515 0-1-.218-1.359-.53l-.36.484a2.413 2.413 0 0 0 1.688.671zm.344-2.891c-.531 0-.86-.39-.86-1.172 0-1.25.86-2.438 1.797-2.438.36 0 .688.204.97.704L3.53-1.547c-.453.563-1.031.844-1.484.844zm0 0"/>
        </symbol>
        <symbol overflow="visible" id="af">
            <path style="stroke:none" d="M1.297 0h.922l2.578-4.844H4.03L2.61-2.047c-.25.485-.484.953-.718 1.453h-.032c-.062-.484-.093-.984-.156-1.453L1.36-4.844H.594zm0 0"/>
        </symbol>
        <symbol overflow="visible" id="E">
            <path style="stroke:none" d="M4.203-2.031c.156-.094.156-.172.156-.219 0-.11-.093-.156-.156-.203L.61-4.516C.516-4.578.5-4.594.438-4.594c-.204 0-.204.203-.204.328v4.032c0 .14 0 .328.203.328C.484.094.5.094.595.03zm-.422-.219L.625-.437v-3.626zm0 0"/>
        </symbol>
        <clipPath id="a">
            <path d="M0 0h483.09v730.559H0zm0 0"/>
        </clipPath>
    </defs>
    <g clip-path="url(#a)">
        <path style="stroke:none;fill-rule:nonzero;fill:#fff;fill-opacity:1" d="M483.09 0v730.566H-.004V0zm0 0"/>
    </g>
    <path style="fill:none;stroke-width:1.19553;stroke-linecap:butt;stroke-linejoin:miter;stroke:#000;stroke-opacity:1;stroke-miterlimit:10" d="M-20.043-.002v28.348a4.256 4.256 0 0 1-4.254 4.254 4.253 4.253 0 0 1-4.25-4.254 2.551 2.551 0 1 1 4.758 1.277m3.746-3.828h-5.953m1.7 6.805h40.089a4.253 4.253 0 0 0 4.25-4.254v-54.14M-20.043-.003v-28.344a4.253 4.253 0 0 1 4.25-4.254 4.256 4.256 0 0 1 4.254 4.254 2.554 2.554 0 0 1-2.55 2.551 2.555 2.555 0 0 1-2.556-2.55c0-.45.122-.891.344-1.278m.508-2.977h40.09a3.403 3.403 0 0 1 0 6.805h-38.813M-12.027 5.67h24.054M-12.027-.002h24.054M-12.027-5.67H4.008" transform="matrix(1 0 0 -1 241.543 61.545)"/>
    <use xlink:href="#b" x="228.945" y="46.729" style="fill:#000;fill-opacity:1"/>
    <g style="fill:#000;fill-opacity:1">
        <use xlink:href="#c" x="233.966" y="46.729"/>
        <use xlink:href="#d" x="238.414" y="46.729"/>
        <use xlink:href="#e" x="242.502" y="46.729"/>
        <use xlink:href="#f" x="244.717" y="46.729"/>
        <use xlink:href="#c" x="249.693" y="46.729"/>
    </g>
    <path style="fill:none;stroke-width:1.19553;stroke-linecap:butt;stroke-linejoin:miter;stroke:#000;stroke-opacity:1;stroke-miterlimit:10" d="M40.527-68.607h-81.054A1.99 1.99 0 0 1-42.52-70.6v-28.882c0-1.098.891-1.993 1.993-1.993h81.054c1.102 0 1.992.895 1.992 1.993V-70.6a1.99 1.99 0 0 1-1.992 1.993zm0 0" transform="matrix(1 0 0 -1 241.543 61.545)"/>
    <use xlink:href="#g" x="216.262" y="149.021" style="fill:#000;fill-opacity:1"/>
    <g style="fill:#000;fill-opacity:1">
        <use xlink:href="#h" x="221.482" y="149.021"/>
        <use xlink:href="#i" x="226.504" y="149.021"/>
    </g>
    <g style="fill:#000;fill-opacity:1">
        <use xlink:href="#j" x="229.931" y="149.021"/>
        <use xlink:href="#k" x="234.105" y="149.021"/>
    </g>
    <use xlink:href="#i" x="241.029" y="149.021" style="fill:#000;fill-opacity:1"/>
    <g style="fill:#000;fill-opacity:1">
        <use xlink:href="#k" x="244.406" y="149.021"/>
        <use xlink:href="#l" x="249.348" y="149.021"/>
        <use xlink:href="#m" x="253.891" y="149.021"/>
        <use xlink:href="#n" x="256.352" y="149.021"/>
        <use xlink:href="#k" x="261.881" y="149.021"/>
    </g>
    <path style="fill:none;stroke-width:1.19553;stroke-linecap:butt;stroke-linejoin:miter;stroke:#000;stroke-opacity:1;stroke-miterlimit:10" d="M0-42.521v-22.301" transform="matrix(1 0 0 -1 241.543 61.545)"/>
    <path style="stroke:none;fill-rule:nonzero;fill:#000;fill-opacity:1" d="m241.543 129.555 2.55-5.102-2.55 1.914-2.55-1.914"/>
    <path style="fill:none;stroke-width:1.19553;stroke-linecap:butt;stroke-linejoin:miter;stroke:#000;stroke-opacity:1;stroke-miterlimit:10" d="M40.527-145.19h-81.054a1.99 1.99 0 0 1-1.993-1.992v-27.14c0-1.098.891-1.992 1.993-1.992h81.054c1.102 0 1.992.894 1.992 1.992v27.14a1.99 1.99 0 0 1-1.992 1.993zm0 0" transform="matrix(1 0 0 -1 241.543 61.545)"/>
    <use xlink:href="#o" x="213.224" y="225.784" style="fill:#000;fill-opacity:1"/>
    <use xlink:href="#k" x="218.016" y="225.784" style="fill:#000;fill-opacity:1"/>
    <use xlink:href="#p" x="222.858" y="225.784" style="fill:#000;fill-opacity:1"/>
    <g style="fill:#000;fill-opacity:1">
        <use xlink:href="#l" x="226.096" y="225.784"/>
        <use xlink:href="#q" x="230.639" y="225.784"/>
    </g>
    <g style="fill:#000;fill-opacity:1">
        <use xlink:href="#j" x="238.041" y="225.784"/>
        <use xlink:href="#r" x="242.215" y="225.784"/>
        <use xlink:href="#s" x="247.615" y="225.784"/>
        <use xlink:href="#i" x="253.035" y="225.784"/>
    </g>
    <use xlink:href="#l" x="256.412" y="225.784" style="fill:#000;fill-opacity:1"/>
    <g style="fill:#000;fill-opacity:1">
        <use xlink:href="#k" x="260.746" y="225.784"/>
        <use xlink:href="#j" x="265.687" y="225.784"/>
    </g>
    <path style="fill:none;stroke-width:1.19553;stroke-linecap:butt;stroke-linejoin:miter;stroke:#000;stroke-opacity:1;stroke-miterlimit:10" d="M0-102.072v-39.332" transform="matrix(1 0 0 -1 241.543 61.545)"/>
    <path style="stroke:none;fill-rule:nonzero;fill:#000;fill-opacity:1" d="m241.543 206.137 2.55-5.102-2.55 1.914-2.55-1.914"/>
    <path style="fill:none;stroke-width:1.19553;stroke-linecap:butt;stroke-linejoin:miter;stroke:#000;stroke-opacity:1;stroke-dasharray:5.97766,3.9851;stroke-miterlimit:10" d="M0-123.33h28.348" transform="matrix(1 0 0 -1 241.543 61.545)"/>
    <g style="fill:#000;fill-opacity:1">
        <use xlink:href="#t" x="273.808" y="187.402"/>
        <use xlink:href="#u" x="280.015" y="187.402"/>
        <use xlink:href="#u" x="285.135" y="187.402"/>
        <use xlink:href="#v" x="290.256" y="187.402"/>
        <use xlink:href="#w" x="294.998" y="187.402"/>
    </g>
    <g style="fill:#000;fill-opacity:1">
        <use xlink:href="#x" x="299.392" y="187.402"/>
        <use xlink:href="#u" x="304.722" y="187.402"/>
        <use xlink:href="#y" x="309.843" y="187.402"/>
        <use xlink:href="#z" x="313.848" y="187.402"/>
        <use xlink:href="#A" x="317.086" y="187.402"/>
        <use xlink:href="#x" x="321.897" y="187.402"/>
        <use xlink:href="#B" x="327.227" y="187.402"/>
        <use xlink:href="#C" x="332.577" y="187.402"/>
    </g>
    <g style="fill:#000;fill-opacity:1">
        <use xlink:href="#y" x="335.935" y="187.402"/>
        <use xlink:href="#D" x="339.94" y="187.402"/>
    </g>
    <path style="fill:none;stroke-width:1.19553;stroke-linecap:butt;stroke-linejoin:miter;stroke:#000;stroke-opacity:1;stroke-miterlimit:10" d="M43.203-220.03h-86.406a1.99 1.99 0 0 1-1.992-1.991v-40.254a1.99 1.99 0 0 1 1.992-1.993h86.406a1.99 1.99 0 0 1 1.992 1.993v40.254a1.99 1.99 0 0 1-1.992 1.992zm0 0" transform="matrix(1 0 0 -1 241.543 61.545)"/>
    <g style="fill:#000;fill-opacity:1">
        <use xlink:href="#g" x="208.302" y="300.065"/>
        <use xlink:href="#i" x="213.951" y="300.065"/>
    </g>
    <g style="fill:#000;fill-opacity:1">
        <use xlink:href="#k" x="217.318" y="300.065"/>
        <use xlink:href="#n" x="222.26" y="300.065"/>
    </g>
    <g style="fill:#000;fill-opacity:1">
        <use xlink:href="#h" x="227.649" y="300.065"/>
        <use xlink:href="#i" x="232.671" y="300.065"/>
    </g>
    <use xlink:href="#k" x="236.038" y="300.065" style="fill:#000;fill-opacity:1"/>
    <g style="fill:#000;fill-opacity:1">
        <use xlink:href="#j" x="242.962" y="300.065"/>
        <use xlink:href="#r" x="247.136" y="300.065"/>
        <use xlink:href="#s" x="252.536" y="300.065"/>
        <use xlink:href="#i" x="257.956" y="300.065"/>
    </g>
    <use xlink:href="#l" x="261.333" y="300.065" style="fill:#000;fill-opacity:1"/>
    <g style="fill:#000;fill-opacity:1">
        <use xlink:href="#k" x="265.667" y="300.065"/>
        <use xlink:href="#j" x="270.608" y="300.065"/>
    </g>
    <use xlink:href="#E" x="220.068" y="312.02" style="fill:#000;fill-opacity:1"/>
    <g style="fill:#000;fill-opacity:1">
        <use xlink:href="#f" x="228.262" y="312.02"/>
        <use xlink:href="#F" x="233.238" y="312.02"/>
    </g>
    <g style="fill:#000;fill-opacity:1">
        <use xlink:href="#c" x="236.278" y="312.02"/>
        <use xlink:href="#f" x="240.725" y="312.02"/>
    </g>
    <g style="fill:#000;fill-opacity:1">
        <use xlink:href="#G" x="245.576" y="312.02"/>
        <use xlink:href="#F" x="250.095" y="312.02"/>
    </g>
    <g style="fill:#000;fill-opacity:1">
        <use xlink:href="#c" x="253.126" y="312.02"/>
        <use xlink:href="#H" x="257.573" y="312.02"/>
        <use xlink:href="#I" x="260.299" y="312.02"/>
    </g>
    <path style="fill:none;stroke-width:1.19553;stroke-linecap:butt;stroke-linejoin:miter;stroke:#000;stroke-opacity:1;stroke-miterlimit:10" d="M0-176.912v-39.332" transform="matrix(1 0 0 -1 241.543 61.545)"/>
    <path style="stroke:none;fill-rule:nonzero;fill:#000;fill-opacity:1" d="m241.543 280.977 2.55-5.102-2.55 1.914-2.55-1.914"/>
    <path style="fill:none;stroke-width:1.19553;stroke-linecap:butt;stroke-linejoin:miter;stroke:#000;stroke-opacity:1;stroke-dasharray:5.97766,3.9851;stroke-miterlimit:10" d="M0-198.17h28.348" transform="matrix(1 0 0 -1 241.543 61.545)"/>
    <g style="fill:#000;fill-opacity:1">
        <use xlink:href="#t" x="273.808" y="262.302"/>
        <use xlink:href="#u" x="280.015" y="262.302"/>
        <use xlink:href="#u" x="285.135" y="262.302"/>
        <use xlink:href="#v" x="290.256" y="262.302"/>
        <use xlink:href="#w" x="294.998" y="262.302"/>
    </g>
    <g style="fill:#000;fill-opacity:1">
        <use xlink:href="#x" x="299.392" y="262.302"/>
        <use xlink:href="#u" x="304.722" y="262.302"/>
        <use xlink:href="#y" x="309.843" y="262.302"/>
        <use xlink:href="#z" x="313.848" y="262.302"/>
        <use xlink:href="#A" x="317.086" y="262.302"/>
        <use xlink:href="#J" x="321.897" y="262.302"/>
    </g>
    <use xlink:href="#D" x="324.627" y="262.302" style="fill:#000;fill-opacity:1"/>
    <use xlink:href="#z" x="329.24" y="262.302" style="fill:#000;fill-opacity:1"/>
    <g style="fill:#000;fill-opacity:1">
        <use xlink:href="#K" x="332.368" y="262.302"/>
        <use xlink:href="#L" x="336.702" y="262.302"/>
        <use xlink:href="#A" x="341.912" y="262.302"/>
        <use xlink:href="#y" x="346.724" y="262.302"/>
        <use xlink:href="#u" x="350.729" y="262.302"/>
        <use xlink:href="#M" x="355.85" y="262.302"/>
        <use xlink:href="#C" x="361.05" y="262.302"/>
    </g>
    <use xlink:href="#K" x="364.358" y="262.302" style="fill:#000;fill-opacity:1"/>
    <g style="fill:#000;fill-opacity:1">
        <use xlink:href="#D" x="368.572" y="262.302"/>
        <use xlink:href="#y" x="373.354" y="262.302"/>
    </g>
    <path style="fill:none;stroke-width:1.19553;stroke-linecap:butt;stroke-linejoin:miter;stroke:#000;stroke-opacity:1;stroke-miterlimit:10" d="M40.527-307.986h-81.054a1.99 1.99 0 0 1-1.993-1.992v-40.672c0-1.098.891-1.993 1.993-1.993h81.054c1.102 0 1.992.895 1.992 1.993v40.672a1.99 1.99 0 0 1-1.992 1.992zm0 0" transform="matrix(1 0 0 -1 241.543 61.545)"/>
    <g style="fill:#000;fill-opacity:1">
        <use xlink:href="#N" x="212.666" y="388.698"/>
        <use xlink:href="#s" x="218.524" y="388.698"/>
        <use xlink:href="#m" x="223.944" y="388.698"/>
        <use xlink:href="#O" x="226.404" y="388.698"/>
        <use xlink:href="#P" x="228.945" y="388.698"/>
    </g>
    <g style="fill:#000;fill-opacity:1">
        <use xlink:href="#h" x="236.457" y="388.698"/>
        <use xlink:href="#i" x="241.478" y="388.698"/>
        <use xlink:href="#p" x="244.945" y="388.698"/>
        <use xlink:href="#m" x="248.322" y="388.698"/>
        <use xlink:href="#Q" x="250.783" y="388.698"/>
    </g>
    <g style="fill:#000;fill-opacity:1">
        <use xlink:href="#h" x="253.503" y="388.698"/>
        <use xlink:href="#l" x="258.524" y="388.698"/>
    </g>
    <use xlink:href="#p" x="262.967" y="388.698" style="fill:#000;fill-opacity:1"/>
    <use xlink:href="#j" x="266.245" y="388.698" style="fill:#000;fill-opacity:1"/>
    <use xlink:href="#E" x="225.058" y="400.653" style="fill:#000;fill-opacity:1"/>
    <g style="fill:#000;fill-opacity:1">
        <use xlink:href="#R" x="233.252" y="400.653"/>
        <use xlink:href="#S" x="238.219" y="400.653"/>
        <use xlink:href="#e" x="243.097" y="400.653"/>
        <use xlink:href="#T" x="245.312" y="400.653"/>
        <use xlink:href="#U" x="247.598" y="400.653"/>
        <use xlink:href="#H" x="252.575" y="400.653"/>
        <use xlink:href="#I" x="255.3" y="400.653"/>
    </g>
    <path style="fill:none;stroke-width:1.19553;stroke-linecap:butt;stroke-linejoin:miter;stroke:#000;stroke-opacity:1;stroke-miterlimit:10" d="M0-264.865v-39.332" transform="matrix(1 0 0 -1 241.543 61.545)"/>
    <path style="stroke:none;fill-rule:nonzero;fill:#000;fill-opacity:1" d="m241.543 368.934 2.55-5.102-2.55 1.91-2.55-1.91"/>
    <path style="fill:none;stroke-width:1.19553;stroke-linecap:butt;stroke-linejoin:miter;stroke:#000;stroke-opacity:1;stroke-dasharray:5.97766,3.9851;stroke-miterlimit:10" d="M0-286.127h28.348" transform="matrix(1 0 0 -1 241.543 61.545)"/>
    <g style="fill:#000;fill-opacity:1">
        <use xlink:href="#t" x="273.808" y="350.197"/>
        <use xlink:href="#u" x="280.015" y="350.197"/>
        <use xlink:href="#u" x="285.135" y="350.197"/>
        <use xlink:href="#v" x="290.256" y="350.197"/>
        <use xlink:href="#w" x="294.998" y="350.197"/>
    </g>
    <g style="fill:#000;fill-opacity:1">
        <use xlink:href="#x" x="299.392" y="350.197"/>
        <use xlink:href="#u" x="304.722" y="350.197"/>
        <use xlink:href="#y" x="309.843" y="350.197"/>
        <use xlink:href="#z" x="313.848" y="350.197"/>
        <use xlink:href="#A" x="317.086" y="350.197"/>
        <use xlink:href="#x" x="321.897" y="350.197"/>
        <use xlink:href="#C" x="327.227" y="350.197"/>
    </g>
    <g style="fill:#000;fill-opacity:1">
        <use xlink:href="#D" x="330.545" y="350.197"/>
        <use xlink:href="#x" x="335.327" y="350.197"/>
        <use xlink:href="#B" x="340.657" y="350.197"/>
        <use xlink:href="#C" x="346.007" y="350.197"/>
    </g>
    <use xlink:href="#D" x="349.315" y="350.197" style="fill:#000;fill-opacity:1"/>
    <path style="fill:none;stroke-width:1.19553;stroke-linecap:butt;stroke-linejoin:miter;stroke:#000;stroke-opacity:1;stroke-miterlimit:10" d="M-72.86-410.53h-81.054a1.993 1.993 0 0 1-1.992-1.991v-41.106c0-1.098.89-1.992 1.992-1.992h81.055c1.101 0 1.992.894 1.992 1.992v41.106c0 1.097-.89 1.992-1.992 1.992zm0 0" transform="matrix(1 0 0 -1 241.543 61.545)"/>
    <g style="fill:#000;fill-opacity:1">
        <use xlink:href="#V" x="99.563" y="491.244"/>
        <use xlink:href="#r" x="105.252" y="491.244"/>
        <use xlink:href="#n" x="110.651" y="491.244"/>
    </g>
    <use xlink:href="#W" x="116.141" y="491.244" style="fill:#000;fill-opacity:1"/>
    <g style="fill:#000;fill-opacity:1">
        <use xlink:href="#h" x="122.786" y="491.244"/>
        <use xlink:href="#i" x="127.807" y="491.244"/>
        <use xlink:href="#p" x="131.274" y="491.244"/>
        <use xlink:href="#m" x="134.651" y="491.244"/>
        <use xlink:href="#Q" x="137.112" y="491.244"/>
    </g>
    <g style="fill:#000;fill-opacity:1">
        <use xlink:href="#h" x="139.832" y="491.244"/>
        <use xlink:href="#l" x="144.853" y="491.244"/>
    </g>
    <use xlink:href="#p" x="149.296" y="491.244" style="fill:#000;fill-opacity:1"/>
    <use xlink:href="#j" x="152.574" y="491.244" style="fill:#000;fill-opacity:1"/>
    <use xlink:href="#E" x="105.744" y="503.199" style="fill:#000;fill-opacity:1"/>
    <use xlink:href="#f" x="113.939" y="503.199" style="fill:#000;fill-opacity:1"/>
    <g style="fill:#000;fill-opacity:1">
        <use xlink:href="#G" x="118.79" y="503.199"/>
        <use xlink:href="#d" x="123.309" y="503.199"/>
        <use xlink:href="#X" x="127.398" y="503.199"/>
    </g>
    <g style="fill:#000;fill-opacity:1">
        <use xlink:href="#G" x="131.746" y="503.199"/>
        <use xlink:href="#Y" x="136.265" y="503.199"/>
    </g>
    <g style="fill:#000;fill-opacity:1">
        <use xlink:href="#c" x="140.668" y="503.199"/>
        <use xlink:href="#H" x="145.115" y="503.199"/>
        <use xlink:href="#I" x="147.841" y="503.199"/>
    </g>
    <path style="fill:none;stroke-width:1.19553;stroke-linecap:butt;stroke-linejoin:miter;stroke:#000;stroke-opacity:1;stroke-miterlimit:10" d="M-72.86-499.334h-81.054a1.99 1.99 0 0 1-1.992-1.992v-27.14c0-1.098.89-1.993 1.992-1.993h81.055c1.101 0 1.992.895 1.992 1.992v27.14a1.99 1.99 0 0 1-1.992 1.993zm0 0" transform="matrix(1 0 0 -1 241.543 61.545)"/>
    <g style="fill:#000;fill-opacity:1">
        <use xlink:href="#V" x="98.512" y="579.928"/>
        <use xlink:href="#i" x="104.201" y="579.928"/>
    </g>
    <use xlink:href="#k" x="107.568" y="579.928" style="fill:#000;fill-opacity:1"/>
    <use xlink:href="#h" x="112.37" y="579.928" style="fill:#000;fill-opacity:1"/>
    <use xlink:href="#p" x="117.252" y="579.928" style="fill:#000;fill-opacity:1"/>
    <use xlink:href="#k" x="120.489" y="579.928" style="fill:#000;fill-opacity:1"/>
    <g style="fill:#000;fill-opacity:1">
        <use xlink:href="#h" x="127.414" y="579.928"/>
        <use xlink:href="#i" x="132.435" y="579.928"/>
    </g>
    <g style="fill:#000;fill-opacity:1">
        <use xlink:href="#l" x="135.812" y="579.928"/>
        <use xlink:href="#q" x="140.355" y="579.928"/>
        <use xlink:href="#m" x="145.775" y="579.928"/>
        <use xlink:href="#Z" x="148.235" y="579.928"/>
    </g>
    <use xlink:href="#k" x="152.858" y="579.928" style="fill:#000;fill-opacity:1"/>
    <path style="fill:none;stroke-width:1.19553;stroke-linecap:butt;stroke-linejoin:miter;stroke:#000;stroke-opacity:1;stroke-miterlimit:10" d="m-114.25-625.662-22.824 13.18c-.477.273-.86.941-.86 1.492v18.137c0 .546.383 1.218.86 1.492l22.824 13.176c.477.277 1.25.277 1.727 0l22.82-13.176c.476-.274.863-.946.863-1.492v-18.137c0-.55-.387-1.219-.863-1.492l-22.82-13.18c-.477-.273-1.25-.273-1.727 0zM-113.387-606.033l-24.547 14.172m24.547-14.172v-20.125m0 20.125 9.203 5.316m6.141 3.543 9.203 5.313" transform="matrix(1 0 0 -1 241.543 61.545)"/>
    <path style="fill:none;stroke-width:1.19553;stroke-linecap:butt;stroke-linejoin:miter;stroke:#000;stroke-opacity:1;stroke-miterlimit:10" d="m-122.594-583.002 23.688-13.676c.476-.273.863-.941.863-1.492v-8.07c0-.55-.387-1.219-.863-1.496l-4.414-2.547c-.477-.274-.86-.05-.86.5v8.07c0 .551-.386 1.219-.863 1.492l-23.688 13.676M40.527-410.53h-81.054a1.993 1.993 0 0 1-1.993-1.991v-41.106c0-1.098.891-1.992 1.993-1.992h81.054c1.102 0 1.992.894 1.992 1.992v41.106c0 1.097-.89 1.992-1.992 1.992zm0 0" transform="matrix(1 0 0 -1 241.543 61.545)"/>
    <g style="fill:#000;fill-opacity:1">
        <use xlink:href="#V" x="212.95" y="491.244"/>
        <use xlink:href="#r" x="218.639" y="491.244"/>
        <use xlink:href="#n" x="224.038" y="491.244"/>
    </g>
    <use xlink:href="#W" x="229.528" y="491.244" style="fill:#000;fill-opacity:1"/>
    <g style="fill:#000;fill-opacity:1">
        <use xlink:href="#h" x="236.173" y="491.244"/>
        <use xlink:href="#i" x="241.194" y="491.244"/>
        <use xlink:href="#p" x="244.661" y="491.244"/>
        <use xlink:href="#m" x="248.038" y="491.244"/>
        <use xlink:href="#Q" x="250.499" y="491.244"/>
    </g>
    <g style="fill:#000;fill-opacity:1">
        <use xlink:href="#h" x="253.219" y="491.244"/>
        <use xlink:href="#l" x="258.24" y="491.244"/>
    </g>
    <use xlink:href="#p" x="262.683" y="491.244" style="fill:#000;fill-opacity:1"/>
    <use xlink:href="#j" x="265.961" y="491.244" style="fill:#000;fill-opacity:1"/>
    <use xlink:href="#E" x="219.131" y="503.199" style="fill:#000;fill-opacity:1"/>
    <use xlink:href="#f" x="227.326" y="503.199" style="fill:#000;fill-opacity:1"/>
    <g style="fill:#000;fill-opacity:1">
        <use xlink:href="#G" x="232.177" y="503.199"/>
        <use xlink:href="#d" x="236.696" y="503.199"/>
        <use xlink:href="#X" x="240.785" y="503.199"/>
    </g>
    <g style="fill:#000;fill-opacity:1">
        <use xlink:href="#G" x="245.133" y="503.199"/>
        <use xlink:href="#Y" x="249.652" y="503.199"/>
    </g>
    <g style="fill:#000;fill-opacity:1">
        <use xlink:href="#c" x="254.055" y="503.199"/>
        <use xlink:href="#H" x="258.502" y="503.199"/>
        <use xlink:href="#I" x="261.228" y="503.199"/>
    </g>
    <path style="fill:none;stroke-width:1.19553;stroke-linecap:butt;stroke-linejoin:miter;stroke:#000;stroke-opacity:1;stroke-miterlimit:10" d="M40.527-499.334h-81.054a1.99 1.99 0 0 1-1.993-1.992v-27.14c0-1.098.891-1.993 1.993-1.993h81.054c1.102 0 1.992.895 1.992 1.992v27.14a1.99 1.99 0 0 1-1.992 1.993zm0 0" transform="matrix(1 0 0 -1 241.543 61.545)"/>
    <g style="fill:#000;fill-opacity:1">
        <use xlink:href="#V" x="211.899" y="579.928"/>
        <use xlink:href="#i" x="217.588" y="579.928"/>
    </g>
    <use xlink:href="#k" x="220.955" y="579.928" style="fill:#000;fill-opacity:1"/>
    <use xlink:href="#h" x="225.757" y="579.928" style="fill:#000;fill-opacity:1"/>
    <use xlink:href="#p" x="230.639" y="579.928" style="fill:#000;fill-opacity:1"/>
    <use xlink:href="#k" x="233.876" y="579.928" style="fill:#000;fill-opacity:1"/>
    <g style="fill:#000;fill-opacity:1">
        <use xlink:href="#h" x="240.801" y="579.928"/>
        <use xlink:href="#i" x="245.822" y="579.928"/>
    </g>
    <g style="fill:#000;fill-opacity:1">
        <use xlink:href="#l" x="249.199" y="579.928"/>
        <use xlink:href="#q" x="253.742" y="579.928"/>
        <use xlink:href="#m" x="259.162" y="579.928"/>
        <use xlink:href="#Z" x="261.622" y="579.928"/>
    </g>
    <use xlink:href="#k" x="266.245" y="579.928" style="fill:#000;fill-opacity:1"/>
    <path style="fill:none;stroke-width:1.19553;stroke-linecap:butt;stroke-linejoin:miter;stroke:#000;stroke-opacity:1;stroke-miterlimit:10" d="m-.863-625.662-22.82 13.18c-.477.273-.864.941-.864 1.492v18.137c0 .546.387 1.218.863 1.492l22.82 13.176c.477.277 1.25.277 1.727 0l22.82-13.176c.477-.274.864-.946.864-1.492v-18.137c0-.55-.387-1.219-.863-1.492l-22.82-13.18c-.477-.273-1.25-.273-1.727 0zM0-606.033l-24.547 14.172M0-606.033v-20.125m0 20.125 9.207 5.316m6.137 3.543 9.203 5.313" transform="matrix(1 0 0 -1 241.543 61.545)"/>
    <path style="fill:none;stroke-width:1.19553;stroke-linecap:butt;stroke-linejoin:miter;stroke:#000;stroke-opacity:1;stroke-miterlimit:10" d="m-9.207-583.002 23.687-13.676c.477-.273.864-.941.864-1.492v-8.07c0-.55-.387-1.219-.864-1.496l-4.41-2.547c-.476-.274-.863-.05-.863.5v8.07c0 .551-.387 1.219-.863 1.492l-23.688 13.676M153.914-410.53H72.859a1.993 1.993 0 0 1-1.992-1.991v-41.106c0-1.098.89-1.992 1.992-1.992h81.055c1.102 0 1.992.894 1.992 1.992v41.106c0 1.097-.89 1.992-1.992 1.992zm0 0" transform="matrix(1 0 0 -1 241.543 61.545)"/>
    <g style="fill:#000;fill-opacity:1">
        <use xlink:href="#V" x="326.337" y="491.244"/>
        <use xlink:href="#r" x="332.026" y="491.244"/>
        <use xlink:href="#n" x="337.425" y="491.244"/>
    </g>
    <use xlink:href="#W" x="342.915" y="491.244" style="fill:#000;fill-opacity:1"/>
    <g style="fill:#000;fill-opacity:1">
        <use xlink:href="#h" x="349.56" y="491.244"/>
        <use xlink:href="#i" x="354.581" y="491.244"/>
        <use xlink:href="#p" x="358.048" y="491.244"/>
        <use xlink:href="#m" x="361.425" y="491.244"/>
        <use xlink:href="#Q" x="363.886" y="491.244"/>
    </g>
    <g style="fill:#000;fill-opacity:1">
        <use xlink:href="#h" x="366.606" y="491.244"/>
        <use xlink:href="#l" x="371.627" y="491.244"/>
    </g>
    <use xlink:href="#p" x="376.07" y="491.244" style="fill:#000;fill-opacity:1"/>
    <use xlink:href="#j" x="379.348" y="491.244" style="fill:#000;fill-opacity:1"/>
    <use xlink:href="#E" x="332.518" y="503.199" style="fill:#000;fill-opacity:1"/>
    <use xlink:href="#f" x="340.713" y="503.199" style="fill:#000;fill-opacity:1"/>
    <g style="fill:#000;fill-opacity:1">
        <use xlink:href="#G" x="345.564" y="503.199"/>
        <use xlink:href="#d" x="350.083" y="503.199"/>
        <use xlink:href="#X" x="354.172" y="503.199"/>
    </g>
    <g style="fill:#000;fill-opacity:1">
        <use xlink:href="#G" x="358.52" y="503.199"/>
        <use xlink:href="#Y" x="363.039" y="503.199"/>
    </g>
    <g style="fill:#000;fill-opacity:1">
        <use xlink:href="#c" x="367.442" y="503.199"/>
        <use xlink:href="#H" x="371.889" y="503.199"/>
        <use xlink:href="#I" x="374.615" y="503.199"/>
    </g>
    <path style="fill:none;stroke-width:1.19553;stroke-linecap:butt;stroke-linejoin:miter;stroke:#000;stroke-opacity:1;stroke-miterlimit:10" d="M153.914-499.334H72.859a1.99 1.99 0 0 1-1.992-1.992v-27.14c0-1.098.89-1.993 1.992-1.993h81.055c1.102 0 1.992.895 1.992 1.992v27.14a1.99 1.99 0 0 1-1.992 1.993zm0 0" transform="matrix(1 0 0 -1 241.543 61.545)"/>
    <g style="fill:#000;fill-opacity:1">
        <use xlink:href="#V" x="325.286" y="579.928"/>
        <use xlink:href="#i" x="330.975" y="579.928"/>
    </g>
    <use xlink:href="#k" x="334.342" y="579.928" style="fill:#000;fill-opacity:1"/>
    <use xlink:href="#h" x="339.144" y="579.928" style="fill:#000;fill-opacity:1"/>
    <use xlink:href="#p" x="344.026" y="579.928" style="fill:#000;fill-opacity:1"/>
    <use xlink:href="#k" x="347.263" y="579.928" style="fill:#000;fill-opacity:1"/>
    <g style="fill:#000;fill-opacity:1">
        <use xlink:href="#h" x="354.188" y="579.928"/>
        <use xlink:href="#i" x="359.209" y="579.928"/>
    </g>
    <g style="fill:#000;fill-opacity:1">
        <use xlink:href="#l" x="362.586" y="579.928"/>
        <use xlink:href="#q" x="367.129" y="579.928"/>
        <use xlink:href="#m" x="372.549" y="579.928"/>
        <use xlink:href="#Z" x="375.009" y="579.928"/>
    </g>
    <use xlink:href="#k" x="379.632" y="579.928" style="fill:#000;fill-opacity:1"/>
    <path style="fill:none;stroke-width:1.19553;stroke-linecap:butt;stroke-linejoin:miter;stroke:#000;stroke-opacity:1;stroke-miterlimit:10" d="m112.523-625.662-22.82 13.18c-.476.273-.863.941-.863 1.492v18.137c0 .546.387 1.218.863 1.492l22.82 13.176c.477.277 1.25.277 1.727 0l22.824-13.176c.477-.274.863-.946.863-1.492v-18.137c0-.55-.386-1.219-.863-1.492l-22.824-13.18c-.477-.273-1.25-.273-1.727 0zM113.387-606.033 88.84-591.861m24.547-14.172v-20.125m0 20.125 9.207 5.316m6.136 3.543 9.204 5.313" transform="matrix(1 0 0 -1 241.543 61.545)"/>
    <path style="fill:none;stroke-width:1.19553;stroke-linecap:butt;stroke-linejoin:miter;stroke:#000;stroke-opacity:1;stroke-miterlimit:10" d="m104.184-583.002 23.683-13.676c.477-.273.863-.941.863-1.492v-8.07c0-.55-.386-1.219-.863-1.496l-4.41-2.547c-.477-.274-.863-.05-.863.5v8.07c0 .551-.387 1.219-.864 1.492l-23.687 13.676M0-353.24v-14.172M0-367.412c0-42.48-78.785-5.734-98.438-39.762" transform="matrix(1 0 0 -1 241.543 61.545)"/>
    <path style="stroke:none;fill-rule:nonzero;fill:#000;fill-opacity:1" d="m141.512 471.477 4.758-3.141-3.165.383-1.253-2.934"/>
    <path style="fill:none;stroke-width:1.19553;stroke-linecap:butt;stroke-linejoin:miter;stroke:#000;stroke-opacity:1;stroke-miterlimit:10" d="M0-367.412v-39.332" transform="matrix(1 0 0 -1 241.543 61.545)"/>
    <path style="stroke:none;fill-rule:nonzero;fill:#000;fill-opacity:1" d="m241.543 471.477 2.55-5.098-2.55 1.91-2.55-1.91"/>
    <path style="fill:none;stroke-width:1.19553;stroke-linecap:butt;stroke-linejoin:miter;stroke:#000;stroke-opacity:1;stroke-miterlimit:10" d="M0-367.412c0-42.48 78.785-5.734 98.437-39.762" transform="matrix(1 0 0 -1 241.543 61.545)"/>
    <path style="stroke:none;fill-rule:nonzero;fill:#000;fill-opacity:1" d="m341.574 471.477-.34-5.692-1.254 2.934-3.164-.383"/>
    <path style="fill:none;stroke-width:1.19553;stroke-linecap:butt;stroke-linejoin:miter;stroke:#000;stroke-opacity:1;stroke-miterlimit:10" d="M-113.387-456.217v-39.332" transform="matrix(1 0 0 -1 241.543 61.545)"/>
    <path style="stroke:none;fill-rule:nonzero;fill:#000;fill-opacity:1" d="m128.156 560.281 2.551-5.101-2.55 1.914-2.552-1.914"/>
    <path style="fill:none;stroke-width:1.19553;stroke-linecap:butt;stroke-linejoin:miter;stroke:#000;stroke-opacity:1;stroke-miterlimit:10" d="M0-456.217v-39.332" transform="matrix(1 0 0 -1 241.543 61.545)"/>
    <path style="stroke:none;fill-rule:nonzero;fill:#000;fill-opacity:1" d="m241.543 560.281 2.55-5.101-2.55 1.914-2.55-1.914"/>
    <path style="fill:none;stroke-width:1.19553;stroke-linecap:butt;stroke-linejoin:miter;stroke:#000;stroke-opacity:1;stroke-miterlimit:10" d="M113.387-456.217v-39.332" transform="matrix(1 0 0 -1 241.543 61.545)"/>
    <path style="stroke:none;fill-rule:nonzero;fill:#000;fill-opacity:1" d="m354.93 560.281 2.55-5.101-2.55 1.914-2.551-1.914"/>
    <path style="fill:none;stroke-width:1.19553;stroke-linecap:butt;stroke-linejoin:miter;stroke:#000;stroke-opacity:1;stroke-miterlimit:10" d="M-113.387-531.057v-32.246" transform="matrix(1 0 0 -1 241.543 61.545)"/>
    <path style="stroke:none;fill-rule:nonzero;fill:#000;fill-opacity:1" d="m128.156 628.035 2.551-5.101-2.55 1.914-2.552-1.914"/>
    <path style="fill:none;stroke-width:1.19553;stroke-linecap:butt;stroke-linejoin:miter;stroke:#000;stroke-opacity:1;stroke-miterlimit:10" d="M0-531.057v-32.246" transform="matrix(1 0 0 -1 241.543 61.545)"/>
    <path style="stroke:none;fill-rule:nonzero;fill:#000;fill-opacity:1" d="m241.543 628.035 2.55-5.101-2.55 1.914-2.55-1.914"/>
    <path style="fill:none;stroke-width:1.19553;stroke-linecap:butt;stroke-linejoin:miter;stroke:#000;stroke-opacity:1;stroke-miterlimit:10" d="M113.387-531.057v-32.246" transform="matrix(1 0 0 -1 241.543 61.545)"/>
    <path style="stroke:none;fill-rule:nonzero;fill:#000;fill-opacity:1" d="m354.93 628.035 2.55-5.101-2.55 1.914-2.551-1.914"/>
    <path style="fill:none;stroke-width:1.19553;stroke-linecap:butt;stroke-linejoin:miter;stroke:#000;stroke-opacity:1;stroke-dasharray:5.97766,3.9851;stroke-miterlimit:10" d="M0-367.412h28.348" transform="matrix(1 0 0 -1 241.543 61.545)"/>
    <g style="fill:#000;fill-opacity:1">
        <use xlink:href="#t" x="273.808" y="431.483"/>
        <use xlink:href="#u" x="280.015" y="431.483"/>
        <use xlink:href="#u" x="285.135" y="431.483"/>
        <use xlink:href="#v" x="290.256" y="431.483"/>
        <use xlink:href="#w" x="294.998" y="431.483"/>
    </g>
    <g style="fill:#000;fill-opacity:1">
        <use xlink:href="#x" x="299.392" y="431.483"/>
        <use xlink:href="#u" x="304.722" y="431.483"/>
        <use xlink:href="#y" x="309.843" y="431.483"/>
        <use xlink:href="#z" x="313.848" y="431.483"/>
        <use xlink:href="#A" x="317.086" y="431.483"/>
        <use xlink:href="#aa" x="321.897" y="431.483"/>
        <use xlink:href="#M" x="327.237" y="431.483"/>
        <use xlink:href="#ab" x="332.438" y="431.483"/>
        <use xlink:href="#ac" x="334.799" y="431.483"/>
        <use xlink:href="#ad" x="337.27" y="431.483"/>
    </g>
    <path style="fill:none;stroke-width:1.19553;stroke-linecap:butt;stroke-linejoin:miter;stroke:#000;stroke-opacity:1;stroke-dasharray:5.97766,3.9851;stroke-miterlimit:10" d="M-113.387-477.475h255.121" transform="matrix(1 0 0 -1 241.543 61.545)"/>
    <g style="fill:#000;fill-opacity:1">
        <use xlink:href="#t" x="387.195" y="541.472"/>
        <use xlink:href="#u" x="393.402" y="541.472"/>
        <use xlink:href="#u" x="398.522" y="541.472"/>
        <use xlink:href="#v" x="403.643" y="541.472"/>
        <use xlink:href="#w" x="408.385" y="541.472"/>
    </g>
    <g style="fill:#000;fill-opacity:1">
        <use xlink:href="#x" x="412.779" y="541.472"/>
        <use xlink:href="#u" x="418.109" y="541.472"/>
        <use xlink:href="#y" x="423.23" y="541.472"/>
        <use xlink:href="#z" x="427.235" y="541.472"/>
        <use xlink:href="#A" x="430.473" y="541.472"/>
        <use xlink:href="#x" x="435.284" y="541.472"/>
        <use xlink:href="#B" x="440.614" y="541.472"/>
        <use xlink:href="#K" x="445.964" y="541.472"/>
        <use xlink:href="#v" x="450.298" y="541.472"/>
    </g>
    <g style="fill:#000;fill-opacity:1">
        <use xlink:href="#B" x="454.881" y="541.472"/>
        <use xlink:href="#ae" x="460.231" y="541.472"/>
        <use xlink:href="#D" x="465.521" y="541.472"/>
    </g>
    <path style="fill:none;stroke-width:1.19553;stroke-linecap:butt;stroke-linejoin:miter;stroke:#000;stroke-opacity:1;stroke-dasharray:5.97766,3.9851;stroke-miterlimit:10" d="M-113.387-548.771h255.121" transform="matrix(1 0 0 -1 241.543 61.545)"/>
    <g style="fill:#000;fill-opacity:1">
        <use xlink:href="#t" x="387.195" y="612.843"/>
        <use xlink:href="#u" x="393.402" y="612.843"/>
        <use xlink:href="#u" x="398.522" y="612.843"/>
        <use xlink:href="#v" x="403.643" y="612.843"/>
        <use xlink:href="#w" x="408.385" y="612.843"/>
    </g>
    <g style="fill:#000;fill-opacity:1">
        <use xlink:href="#x" x="412.779" y="612.843"/>
        <use xlink:href="#u" x="418.109" y="612.843"/>
        <use xlink:href="#y" x="423.23" y="612.843"/>
        <use xlink:href="#z" x="427.235" y="612.843"/>
        <use xlink:href="#A" x="430.473" y="612.843"/>
        <use xlink:href="#B" x="435.284" y="612.843"/>
        <use xlink:href="#C" x="440.634" y="612.843"/>
    </g>
    <g style="fill:#000;fill-opacity:1">
        <use xlink:href="#K" x="443.952" y="612.843"/>
        <use xlink:href="#L" x="448.286" y="612.843"/>
        <use xlink:href="#ab" x="453.496" y="612.843"/>
        <use xlink:href="#af" x="455.857" y="612.843"/>
    </g>
    <use xlink:href="#D" x="460.291" y="612.843" style="fill:#000;fill-opacity:1"/>
</svg>
